<svg width="40" height="30" viewBox="0 0 40 30" fill="none" xmlns="http://www.w3.org/2000/svg">
<g clip-path="url(#clip0_2_631)">
<path d="M40 26.9258C39.884 27.4748 39.6512 27.9924 39.3175 28.4437C38.9837 28.8949 38.5568 29.2693 38.0656 29.5414C37.5282 29.8386 36.9241 29.9947 36.3098 29.9951C32.5278 29.9951 28.7457 29.9951 24.9585 29.9951C24.4695 29.9958 23.9852 29.8999 23.5334 29.713C23.0816 29.5261 22.6713 29.2518 22.326 28.9059C21.9807 28.56 21.7072 28.1493 21.5214 27.6975C21.3355 27.2457 21.2408 26.7616 21.2428 26.2732C21.2428 22.1025 21.2428 17.9319 21.2428 13.7613C21.3097 11.9145 21.7653 10.1026 22.5801 8.44347C23.6009 6.1746 24.5196 3.85475 25.4791 1.59099C25.667 1.11636 25.9954 0.710266 26.4204 0.426941C26.8453 0.143616 27.3467 -0.00345421 27.8576 0.00533867H31.757C31.9694 -0.0186329 32.1844 0.0106373 32.3826 0.0905113C32.5808 0.170385 32.756 0.298319 32.8923 0.46279C33.0286 0.627262 33.1217 0.823084 33.1632 1.03252C33.2047 1.24196 33.1933 1.45844 33.13 1.66237C32.7115 3.81397 32.2913 5.96726 31.8693 8.12226C31.6958 9.0247 31.5376 9.93225 31.3589 10.8296C31.2824 11.1661 31.3589 11.2375 31.6958 11.2375C33.1657 11.2375 34.6357 11.2375 36.1005 11.2375C36.9808 11.188 37.8504 11.4503 38.5562 11.9781C39.2619 12.506 39.7587 13.2656 39.9592 14.1233L40.0255 14.3068L40 26.9258Z" fill="#1B3854"/>
<path d="M0.00509834 19.8589C0.00509834 17.896 0.00509834 15.933 0.00509834 13.97C0.0473995 12.0234 0.5142 10.1095 1.37296 8.3616C2.39376 6.11823 3.29206 3.84427 4.24141 1.58051C4.42715 1.10426 4.75381 0.695898 5.17784 0.409864C5.60188 0.123831 6.10315 -0.0262909 6.61478 -0.0204525H10.5142C10.7301 -0.0461292 10.9491 -0.0169106 11.1507 0.0644722C11.3523 0.145855 11.53 0.276772 11.6675 0.445091C11.8049 0.613411 11.8976 0.813694 11.9369 1.02733C11.9762 1.24097 11.9609 1.46104 11.8923 1.66717C11.3002 4.72632 10.7184 7.73449 10.1161 10.763C10.0447 11.1199 10.1161 11.2168 10.4785 11.2117C12.0097 11.2117 13.495 11.2117 15.0057 11.2117C15.5045 11.2042 15.9998 11.2965 16.4623 11.4833C16.9248 11.67 17.3451 11.9474 17.6986 12.2991C18.052 12.6507 18.3314 13.0695 18.5203 13.5308C18.7091 13.992 18.8035 14.4864 18.798 14.9846C18.798 18.7236 18.798 22.4625 18.798 26.2015C18.8035 26.697 18.7099 27.1885 18.523 27.6475C18.336 28.1064 18.0593 28.5235 17.709 28.8743C17.3588 29.2251 16.942 29.5027 16.4831 29.6907C16.0242 29.8787 15.5324 29.9735 15.0364 29.9694C11.2934 29.9694 7.53348 29.9694 3.75652 29.9694C3.26427 29.9727 2.77624 29.8784 2.3208 29.6918C1.86537 29.5052 1.45161 29.23 1.10353 28.8823C0.755445 28.5346 0.479977 28.1212 0.293163 27.6663C0.10635 27.2113 0.0119228 26.7239 0.015316 26.2321C3.8147e-06 24.1213 0.00509834 21.9901 0.00509834 19.8589Z" fill="#1B3854"/>
</g>
<defs>
<clipPath id="clip0_2_631">
<rect width="40" height="30" fill="white" transform="matrix(-1 0 0 -1 40 30)"/>
</clipPath>
</defs>
</svg>
