<svg width="18" height="18" viewBox="0 0 18 18" fill="none" xmlns="http://www.w3.org/2000/svg">
<path fill-rule="evenodd" clip-rule="evenodd" d="M9.00002 17.3337C13.6024 17.3337 17.3334 13.6027 17.3334 9.00033C17.3334 4.39795 13.6024 0.666992 9.00002 0.666992C4.39765 0.666992 0.666687 4.39795 0.666687 9.00033C0.666687 13.6027 4.39765 17.3337 9.00002 17.3337ZM12.8939 6.9986C13.1691 6.68901 13.1412 6.21496 12.8316 5.93977C12.522 5.66458 12.048 5.69247 11.7728 6.00205L8.07576 10.1612C7.97631 10.2731 7.8015 10.2731 7.70206 10.1612L6.22724 8.50205C5.95206 8.19247 5.478 8.16458 5.16841 8.43977C4.85883 8.71496 4.83094 9.18901 5.10613 9.4986L6.58094 11.1578C7.27708 11.9409 8.50074 11.9409 9.19688 11.1578L12.8939 6.9986Z" fill="#1B3854"/>
</svg>
