<svg width="14" height="14" viewBox="0 0 14 14" fill="none" xmlns="http://www.w3.org/2000/svg">
<g clip-path="url(#clip0_2_627)">
<path d="M6.45725 0H7.55133L7.9833 0.0566671C9.42057 0.263091 10.7587 0.909565 11.8138 1.90729C12.869 2.90501 13.5895 4.20504 13.8762 5.62881C13.9305 5.90151 13.9541 6.17776 13.9943 6.45518V7.54954C13.9789 7.65697 13.9624 7.7644 13.9494 7.87301C13.7654 9.46272 13.027 10.9366 11.8639 12.0356C10.3296 13.4947 8.49789 14.1499 6.38644 13.974C4.73023 13.8529 3.17828 13.1199 2.03253 11.9175C0.403804 10.2435 -0.250048 8.22363 0.0863205 5.90859C0.502945 3.04107 2.77963 0.678811 5.62165 0.123959C5.899 0.0731955 6.17989 0.046041 6.45725 0ZM10.4972 4.95236C10.4994 4.8558 10.4677 4.76153 10.4075 4.68601C10.3473 4.61049 10.2625 4.55852 10.1679 4.53917C10.0871 4.52346 10.0036 4.53024 9.92637 4.55876C9.84916 4.58728 9.78126 4.63644 9.73006 4.7009C8.5333 5.90033 7.33575 7.09858 6.13741 8.29564C5.98044 8.45265 5.97925 8.45265 5.82936 8.29564L4.31276 6.77983C4.27621 6.73778 4.23677 6.69834 4.19473 6.66178C4.12624 6.60794 4.04285 6.57646 3.95588 6.5716C3.8689 6.56674 3.78253 6.58874 3.70848 6.63462C3.63655 6.67957 3.57991 6.74523 3.54599 6.82299C3.51208 6.90074 3.50248 6.98693 3.51846 7.07024C3.54353 7.17753 3.60175 7.27419 3.68487 7.34649C4.32299 7.98319 4.96071 8.62068 5.59804 9.25896C5.87894 9.53993 6.08548 9.53993 6.36638 9.25896L9.2261 6.39852L10.3461 5.27819C10.3923 5.23717 10.4296 5.18707 10.4556 5.13101C10.4816 5.07495 10.4958 5.01414 10.4972 4.95236Z" fill="#18BA45"/>
</g>
<defs>
<clipPath id="clip0_2_627">
<rect width="14" height="14" fill="white"/>
</clipPath>
</defs>
</svg>
