<svg width="30" height="30" viewBox="0 0 30 30" fill="none" xmlns="http://www.w3.org/2000/svg">
<path fill-rule="evenodd" clip-rule="evenodd" d="M15 29.1663C22.824 29.1663 29.1666 22.8237 29.1666 14.9997C29.1666 7.17564 22.824 0.833008 15 0.833008C7.17595 0.833008 0.833313 7.17564 0.833313 14.9997C0.833313 22.8237 7.17595 29.1663 15 29.1663ZM21.2272 11.2483C21.5024 10.9387 21.4745 10.4646 21.1649 10.1894C20.8553 9.91425 20.3813 9.94214 20.1061 10.2517L13.2979 17.9109C13.1985 18.0228 13.0237 18.0228 12.9242 17.9109L9.89387 14.5017C9.61868 14.1921 9.14463 14.1643 8.83504 14.4394C8.52545 14.7146 8.49757 15.1887 8.77276 15.4983L11.8031 18.9074C12.4993 19.6906 13.7229 19.6906 14.4191 18.9074L21.2272 11.2483Z" fill="white"/>
</svg>
